<mxfile host="app.diagrams.net" agent="Mozilla/5.0 (X11; Linux x86_64) AppleWebKit/537.36 (KHTML, like Gecko) Chrome/134.0.0.0 Safari/537.36" version="27.0.2">
  <diagram name="Page-1" id="RGzlGMN2tbVZYXPwiC6L">
    <mxGraphModel dx="1700" dy="991" grid="1" gridSize="10" guides="1" tooltips="1" connect="1" arrows="1" fold="1" page="1" pageScale="1" pageWidth="850" pageHeight="1100" math="0" shadow="0">
      <root>
        <mxCell id="0" />
        <mxCell id="1" parent="0" />
        <mxCell id="-v3K85i5kZnDkR2gsKmb-79" value="" style="rounded=0;whiteSpace=wrap;html=1;fontFamily=Helvetica;fontSize=11;fontColor=default;labelBackgroundColor=default;fillColor=none;dashed=1;dashPattern=8 8;" vertex="1" parent="1">
          <mxGeometry x="328" y="870" width="194" height="115" as="geometry" />
        </mxCell>
        <mxCell id="-v3K85i5kZnDkR2gsKmb-67" value="" style="rounded=0;whiteSpace=wrap;html=1;fontFamily=Helvetica;fontSize=11;fontColor=default;labelBackgroundColor=default;fillColor=none;dashed=1;dashPattern=8 8;" vertex="1" parent="1">
          <mxGeometry x="100" width="813" height="260" as="geometry" />
        </mxCell>
        <mxCell id="-v3K85i5kZnDkR2gsKmb-68" value="" style="rounded=0;whiteSpace=wrap;html=1;fontFamily=Helvetica;fontSize=11;fontColor=default;labelBackgroundColor=default;fillColor=none;dashed=1;dashPattern=8 8;" vertex="1" parent="1">
          <mxGeometry x="7" y="350" width="170" height="130" as="geometry" />
        </mxCell>
        <mxCell id="-v3K85i5kZnDkR2gsKmb-69" value="" style="rounded=0;whiteSpace=wrap;html=1;fontFamily=Helvetica;fontSize=11;fontColor=default;labelBackgroundColor=default;fillColor=none;dashed=1;dashPattern=8 8;" vertex="1" parent="1">
          <mxGeometry x="563" y="320" width="620" height="305" as="geometry" />
        </mxCell>
        <mxCell id="-v3K85i5kZnDkR2gsKmb-70" value="" style="rounded=0;whiteSpace=wrap;html=1;fontFamily=Helvetica;fontSize=11;fontColor=default;labelBackgroundColor=default;fillColor=none;dashed=1;dashPattern=8 8;" vertex="1" parent="1">
          <mxGeometry x="792" y="645" width="390" height="390" as="geometry" />
        </mxCell>
        <mxCell id="-v3K85i5kZnDkR2gsKmb-71" value="" style="rounded=0;whiteSpace=wrap;html=1;fontFamily=Helvetica;fontSize=11;fontColor=default;labelBackgroundColor=default;fillColor=none;dashed=1;dashPattern=8 8;" vertex="1" parent="1">
          <mxGeometry x="563" y="705" width="190" height="120" as="geometry" />
        </mxCell>
        <mxCell id="-v3K85i5kZnDkR2gsKmb-37" style="edgeStyle=none;shape=connector;rounded=0;orthogonalLoop=1;jettySize=auto;html=1;exitX=1;exitY=0.5;exitDx=0;exitDy=0;entryX=0;entryY=0.5;entryDx=0;entryDy=0;strokeColor=default;align=center;verticalAlign=middle;fontFamily=Helvetica;fontSize=11;fontColor=default;labelBackgroundColor=default;endArrow=open;endFill=0;" edge="1" parent="1" source="-v3K85i5kZnDkR2gsKmb-1" target="-v3K85i5kZnDkR2gsKmb-8">
          <mxGeometry relative="1" as="geometry" />
        </mxCell>
        <mxCell id="-v3K85i5kZnDkR2gsKmb-43" style="edgeStyle=none;shape=connector;rounded=0;orthogonalLoop=1;jettySize=auto;html=1;exitX=0.75;exitY=1;exitDx=0;exitDy=0;entryX=0.5;entryY=0;entryDx=0;entryDy=0;strokeColor=default;align=center;verticalAlign=middle;fontFamily=Helvetica;fontSize=11;fontColor=default;labelBackgroundColor=default;endArrow=open;endFill=0;" edge="1" parent="1" source="-v3K85i5kZnDkR2gsKmb-1" target="-v3K85i5kZnDkR2gsKmb-10">
          <mxGeometry relative="1" as="geometry" />
        </mxCell>
        <mxCell id="-v3K85i5kZnDkR2gsKmb-44" style="edgeStyle=none;shape=connector;rounded=0;orthogonalLoop=1;jettySize=auto;html=1;exitX=0.25;exitY=1;exitDx=0;exitDy=0;entryX=0.25;entryY=0;entryDx=0;entryDy=0;strokeColor=default;align=center;verticalAlign=middle;fontFamily=Helvetica;fontSize=11;fontColor=default;labelBackgroundColor=default;endArrow=open;endFill=0;" edge="1" parent="1" source="-v3K85i5kZnDkR2gsKmb-1" target="-v3K85i5kZnDkR2gsKmb-2">
          <mxGeometry relative="1" as="geometry" />
        </mxCell>
        <mxCell id="-v3K85i5kZnDkR2gsKmb-45" style="edgeStyle=none;shape=connector;rounded=0;orthogonalLoop=1;jettySize=auto;html=1;exitX=0;exitY=0.5;exitDx=0;exitDy=0;entryX=0.5;entryY=0;entryDx=0;entryDy=0;strokeColor=default;align=center;verticalAlign=middle;fontFamily=Helvetica;fontSize=11;fontColor=default;labelBackgroundColor=default;endArrow=open;endFill=0;" edge="1" parent="1" source="-v3K85i5kZnDkR2gsKmb-1" target="-v3K85i5kZnDkR2gsKmb-39">
          <mxGeometry relative="1" as="geometry" />
        </mxCell>
        <mxCell id="-v3K85i5kZnDkR2gsKmb-56" style="edgeStyle=none;shape=connector;rounded=0;orthogonalLoop=1;jettySize=auto;html=1;exitX=0.5;exitY=0;exitDx=0;exitDy=0;entryX=0.5;entryY=1;entryDx=0;entryDy=0;strokeColor=default;align=center;verticalAlign=middle;fontFamily=Helvetica;fontSize=11;fontColor=default;labelBackgroundColor=default;endArrow=block;endFill=0;" edge="1" parent="1" source="-v3K85i5kZnDkR2gsKmb-1" target="-v3K85i5kZnDkR2gsKmb-52">
          <mxGeometry relative="1" as="geometry" />
        </mxCell>
        <mxCell id="-v3K85i5kZnDkR2gsKmb-65" style="edgeStyle=none;shape=connector;rounded=0;orthogonalLoop=1;jettySize=auto;html=1;exitX=0.25;exitY=0;exitDx=0;exitDy=0;entryX=0.75;entryY=1;entryDx=0;entryDy=0;strokeColor=default;align=center;verticalAlign=middle;fontFamily=Helvetica;fontSize=11;fontColor=default;labelBackgroundColor=default;endArrow=open;endFill=0;" edge="1" parent="1" source="-v3K85i5kZnDkR2gsKmb-1" target="-v3K85i5kZnDkR2gsKmb-60">
          <mxGeometry relative="1" as="geometry" />
        </mxCell>
        <mxCell id="-v3K85i5kZnDkR2gsKmb-1" value="Dataset Reader" style="rounded=0;whiteSpace=wrap;html=1;" vertex="1" parent="1">
          <mxGeometry x="822" y="355" width="120" height="60" as="geometry" />
        </mxCell>
        <mxCell id="-v3K85i5kZnDkR2gsKmb-5" value="" style="group" vertex="1" connectable="0" parent="1">
          <mxGeometry x="742" y="515" width="120" height="70" as="geometry" />
        </mxCell>
        <mxCell id="-v3K85i5kZnDkR2gsKmb-2" value="Doc Buffer" style="rounded=0;whiteSpace=wrap;html=1;" vertex="1" parent="-v3K85i5kZnDkR2gsKmb-5">
          <mxGeometry y="10" width="120" height="60" as="geometry" />
        </mxCell>
        <mxCell id="-v3K85i5kZnDkR2gsKmb-3" value="&amp;lt;I&amp;gt;" style="text;html=1;align=center;verticalAlign=middle;whiteSpace=wrap;rounded=0;fillColor=default;" vertex="1" parent="-v3K85i5kZnDkR2gsKmb-5">
          <mxGeometry x="60" width="60" height="30" as="geometry" />
        </mxCell>
        <mxCell id="-v3K85i5kZnDkR2gsKmb-6" value="" style="group" vertex="1" connectable="0" parent="1">
          <mxGeometry x="1042" y="515" width="120" height="70" as="geometry" />
        </mxCell>
        <mxCell id="-v3K85i5kZnDkR2gsKmb-7" value="Doc Parser" style="rounded=0;whiteSpace=wrap;html=1;" vertex="1" parent="-v3K85i5kZnDkR2gsKmb-6">
          <mxGeometry y="10" width="120" height="60" as="geometry" />
        </mxCell>
        <mxCell id="-v3K85i5kZnDkR2gsKmb-8" value="&amp;lt;I&amp;gt;" style="text;html=1;align=center;verticalAlign=middle;whiteSpace=wrap;rounded=0;fillColor=default;" vertex="1" parent="-v3K85i5kZnDkR2gsKmb-6">
          <mxGeometry x="60" width="60" height="30" as="geometry" />
        </mxCell>
        <mxCell id="-v3K85i5kZnDkR2gsKmb-9" value="" style="group" vertex="1" connectable="0" parent="1">
          <mxGeometry x="892" y="515" width="120" height="70" as="geometry" />
        </mxCell>
        <mxCell id="-v3K85i5kZnDkR2gsKmb-10" value="Document" style="rounded=0;whiteSpace=wrap;html=1;" vertex="1" parent="-v3K85i5kZnDkR2gsKmb-9">
          <mxGeometry y="10" width="120" height="60" as="geometry" />
        </mxCell>
        <mxCell id="-v3K85i5kZnDkR2gsKmb-11" value="&amp;lt;DS&amp;gt;" style="text;html=1;align=center;verticalAlign=middle;whiteSpace=wrap;rounded=0;fillColor=default;" vertex="1" parent="-v3K85i5kZnDkR2gsKmb-9">
          <mxGeometry x="60" width="60" height="30" as="geometry" />
        </mxCell>
        <mxCell id="-v3K85i5kZnDkR2gsKmb-14" value="Algorithmic Parser" style="rounded=0;whiteSpace=wrap;html=1;" vertex="1" parent="1">
          <mxGeometry x="816" y="845" width="120" height="60" as="geometry" />
        </mxCell>
        <mxCell id="-v3K85i5kZnDkR2gsKmb-15" value="LLM Parser" style="rounded=0;whiteSpace=wrap;html=1;" vertex="1" parent="1">
          <mxGeometry x="1021" y="835" width="120" height="60" as="geometry" />
        </mxCell>
        <mxCell id="-v3K85i5kZnDkR2gsKmb-33" style="edgeStyle=none;shape=connector;rounded=0;orthogonalLoop=1;jettySize=auto;html=1;exitX=0.5;exitY=1;exitDx=0;exitDy=0;entryX=0.45;entryY=-0.033;entryDx=0;entryDy=0;entryPerimeter=0;strokeColor=default;align=center;verticalAlign=middle;fontFamily=Helvetica;fontSize=11;fontColor=default;labelBackgroundColor=default;endArrow=open;endFill=0;" edge="1" parent="1" source="-v3K85i5kZnDkR2gsKmb-15" target="-v3K85i5kZnDkR2gsKmb-30">
          <mxGeometry relative="1" as="geometry" />
        </mxCell>
        <mxCell id="-v3K85i5kZnDkR2gsKmb-34" value="" style="group" vertex="1" connectable="0" parent="1">
          <mxGeometry x="1031" y="935" width="120" height="70" as="geometry" />
        </mxCell>
        <mxCell id="-v3K85i5kZnDkR2gsKmb-30" value="LLM Querier" style="rounded=0;whiteSpace=wrap;html=1;fontFamily=Helvetica;fontSize=11;fontColor=default;labelBackgroundColor=default;" vertex="1" parent="-v3K85i5kZnDkR2gsKmb-34">
          <mxGeometry y="10" width="120" height="60" as="geometry" />
        </mxCell>
        <mxCell id="-v3K85i5kZnDkR2gsKmb-31" value="&amp;lt;I&amp;gt;" style="text;html=1;align=center;verticalAlign=middle;whiteSpace=wrap;rounded=0;fillColor=default;" vertex="1" parent="-v3K85i5kZnDkR2gsKmb-34">
          <mxGeometry x="60" width="60" height="30" as="geometry" />
        </mxCell>
        <mxCell id="-v3K85i5kZnDkR2gsKmb-48" style="edgeStyle=none;shape=connector;rounded=0;orthogonalLoop=1;jettySize=auto;html=1;exitX=0.5;exitY=0;exitDx=0;exitDy=0;entryX=0.5;entryY=1;entryDx=0;entryDy=0;strokeColor=default;align=center;verticalAlign=middle;fontFamily=Helvetica;fontSize=11;fontColor=default;labelBackgroundColor=default;endArrow=block;endFill=0;" edge="1" parent="1" source="-v3K85i5kZnDkR2gsKmb-38" target="-v3K85i5kZnDkR2gsKmb-39">
          <mxGeometry relative="1" as="geometry" />
        </mxCell>
        <mxCell id="-v3K85i5kZnDkR2gsKmb-49" style="edgeStyle=none;shape=connector;rounded=0;orthogonalLoop=1;jettySize=auto;html=1;exitX=0.75;exitY=0;exitDx=0;exitDy=0;entryX=0;entryY=0.75;entryDx=0;entryDy=0;strokeColor=default;align=center;verticalAlign=middle;fontFamily=Helvetica;fontSize=11;fontColor=default;labelBackgroundColor=default;endArrow=open;endFill=0;" edge="1" parent="1" source="-v3K85i5kZnDkR2gsKmb-38" target="-v3K85i5kZnDkR2gsKmb-2">
          <mxGeometry relative="1" as="geometry" />
        </mxCell>
        <mxCell id="-v3K85i5kZnDkR2gsKmb-38" value="Pdf Reader" style="rounded=0;whiteSpace=wrap;html=1;fontFamily=Helvetica;fontSize=11;fontColor=default;labelBackgroundColor=default;" vertex="1" parent="1">
          <mxGeometry x="592" y="725" width="120" height="60" as="geometry" />
        </mxCell>
        <mxCell id="-v3K85i5kZnDkR2gsKmb-39" value="Doc Reader" style="rounded=0;whiteSpace=wrap;html=1;fontFamily=Helvetica;fontSize=11;fontColor=default;labelBackgroundColor=default;" vertex="1" parent="1">
          <mxGeometry x="582" y="525" width="120" height="60" as="geometry" />
        </mxCell>
        <mxCell id="-v3K85i5kZnDkR2gsKmb-46" value="&amp;lt;I&amp;gt;" style="text;html=1;align=center;verticalAlign=middle;whiteSpace=wrap;rounded=0;fillColor=default;" vertex="1" parent="1">
          <mxGeometry x="652" y="505" width="60" height="30" as="geometry" />
        </mxCell>
        <mxCell id="-v3K85i5kZnDkR2gsKmb-57" style="edgeStyle=none;shape=connector;rounded=0;orthogonalLoop=1;jettySize=auto;html=1;exitX=0.5;exitY=0;exitDx=0;exitDy=0;entryX=0.5;entryY=1;entryDx=0;entryDy=0;strokeColor=default;align=center;verticalAlign=middle;fontFamily=Helvetica;fontSize=11;fontColor=default;labelBackgroundColor=default;endArrow=block;endFill=0;" edge="1" parent="1" source="-v3K85i5kZnDkR2gsKmb-50" target="-v3K85i5kZnDkR2gsKmb-53">
          <mxGeometry relative="1" as="geometry" />
        </mxCell>
        <mxCell id="-v3K85i5kZnDkR2gsKmb-93" style="edgeStyle=none;shape=connector;rounded=0;orthogonalLoop=1;jettySize=auto;html=1;exitX=0.75;exitY=0;exitDx=0;exitDy=0;strokeColor=default;align=center;verticalAlign=middle;fontFamily=Helvetica;fontSize=11;fontColor=default;labelBackgroundColor=default;endArrow=open;endFill=0;" edge="1" parent="1" source="-v3K85i5kZnDkR2gsKmb-50" target="-v3K85i5kZnDkR2gsKmb-89">
          <mxGeometry relative="1" as="geometry" />
        </mxCell>
        <mxCell id="-v3K85i5kZnDkR2gsKmb-50" value="Document Database" style="rounded=0;whiteSpace=wrap;html=1;fontFamily=Helvetica;fontSize=11;fontColor=default;labelBackgroundColor=default;" vertex="1" parent="1">
          <mxGeometry x="32" y="380" width="120" height="60" as="geometry" />
        </mxCell>
        <mxCell id="-v3K85i5kZnDkR2gsKmb-58" style="edgeStyle=none;shape=connector;rounded=0;orthogonalLoop=1;jettySize=auto;html=1;exitX=0;exitY=0.5;exitDx=0;exitDy=0;entryX=0.25;entryY=0;entryDx=0;entryDy=0;strokeColor=default;align=center;verticalAlign=middle;fontFamily=Helvetica;fontSize=11;fontColor=default;labelBackgroundColor=default;endArrow=open;endFill=0;" edge="1" parent="1" source="-v3K85i5kZnDkR2gsKmb-51" target="-v3K85i5kZnDkR2gsKmb-53">
          <mxGeometry relative="1" as="geometry" />
        </mxCell>
        <mxCell id="-v3K85i5kZnDkR2gsKmb-59" style="edgeStyle=none;shape=connector;rounded=0;orthogonalLoop=1;jettySize=auto;html=1;exitX=1;exitY=0.5;exitDx=0;exitDy=0;entryX=0.5;entryY=0;entryDx=0;entryDy=0;strokeColor=default;align=center;verticalAlign=middle;fontFamily=Helvetica;fontSize=11;fontColor=default;labelBackgroundColor=default;endArrow=open;endFill=0;" edge="1" parent="1" source="-v3K85i5kZnDkR2gsKmb-51" target="-v3K85i5kZnDkR2gsKmb-52">
          <mxGeometry relative="1" as="geometry" />
        </mxCell>
        <mxCell id="-v3K85i5kZnDkR2gsKmb-90" style="edgeStyle=none;shape=connector;rounded=0;orthogonalLoop=1;jettySize=auto;html=1;exitX=0.25;exitY=1;exitDx=0;exitDy=0;entryX=0.321;entryY=0.004;entryDx=0;entryDy=0;strokeColor=default;align=center;verticalAlign=middle;fontFamily=Helvetica;fontSize=11;fontColor=default;labelBackgroundColor=default;endArrow=open;endFill=0;entryPerimeter=0;" edge="1" parent="1" source="-v3K85i5kZnDkR2gsKmb-51" target="-v3K85i5kZnDkR2gsKmb-89">
          <mxGeometry relative="1" as="geometry" />
        </mxCell>
        <mxCell id="-v3K85i5kZnDkR2gsKmb-100" style="edgeStyle=none;shape=connector;rounded=0;orthogonalLoop=1;jettySize=auto;html=1;exitX=0.5;exitY=1;exitDx=0;exitDy=0;strokeColor=default;align=center;verticalAlign=middle;fontFamily=Helvetica;fontSize=11;fontColor=default;labelBackgroundColor=default;endArrow=open;endFill=0;" edge="1" parent="1" source="-v3K85i5kZnDkR2gsKmb-51" target="-v3K85i5kZnDkR2gsKmb-94">
          <mxGeometry relative="1" as="geometry" />
        </mxCell>
        <mxCell id="-v3K85i5kZnDkR2gsKmb-51" value="Interactor" style="rounded=0;whiteSpace=wrap;html=1;fontFamily=Helvetica;fontSize=11;fontColor=default;labelBackgroundColor=default;" vertex="1" parent="1">
          <mxGeometry x="423" y="20" width="120" height="60" as="geometry" />
        </mxCell>
        <mxCell id="-v3K85i5kZnDkR2gsKmb-61" value="" style="group" vertex="1" connectable="0" parent="1">
          <mxGeometry x="133" y="120" width="120" height="80" as="geometry" />
        </mxCell>
        <mxCell id="-v3K85i5kZnDkR2gsKmb-53" value="Repository" style="rounded=0;whiteSpace=wrap;html=1;fontFamily=Helvetica;fontSize=11;fontColor=default;labelBackgroundColor=default;" vertex="1" parent="-v3K85i5kZnDkR2gsKmb-61">
          <mxGeometry y="20" width="120" height="60" as="geometry" />
        </mxCell>
        <mxCell id="-v3K85i5kZnDkR2gsKmb-55" value="&amp;lt;I&amp;gt;" style="text;html=1;align=center;verticalAlign=middle;whiteSpace=wrap;rounded=0;fillColor=default;" vertex="1" parent="-v3K85i5kZnDkR2gsKmb-61">
          <mxGeometry x="60" width="60" height="30" as="geometry" />
        </mxCell>
        <mxCell id="-v3K85i5kZnDkR2gsKmb-62" value="" style="group" vertex="1" connectable="0" parent="1">
          <mxGeometry x="785" y="120" width="120" height="80" as="geometry" />
        </mxCell>
        <mxCell id="-v3K85i5kZnDkR2gsKmb-52" value="Reader" style="rounded=0;whiteSpace=wrap;html=1;fontFamily=Helvetica;fontSize=11;fontColor=default;labelBackgroundColor=default;" vertex="1" parent="-v3K85i5kZnDkR2gsKmb-62">
          <mxGeometry y="20" width="120" height="60" as="geometry" />
        </mxCell>
        <mxCell id="-v3K85i5kZnDkR2gsKmb-54" value="&amp;lt;I&amp;gt;" style="text;html=1;align=center;verticalAlign=middle;whiteSpace=wrap;rounded=0;fillColor=default;" vertex="1" parent="-v3K85i5kZnDkR2gsKmb-62">
          <mxGeometry x="60" width="60" height="30" as="geometry" />
        </mxCell>
        <mxCell id="-v3K85i5kZnDkR2gsKmb-66" style="edgeStyle=none;shape=connector;rounded=0;orthogonalLoop=1;jettySize=auto;html=1;entryX=0.408;entryY=0.017;entryDx=0;entryDy=0;entryPerimeter=0;strokeColor=default;align=center;verticalAlign=middle;fontFamily=Helvetica;fontSize=11;fontColor=default;labelBackgroundColor=default;endArrow=open;endFill=0;" edge="1" parent="1" source="-v3K85i5kZnDkR2gsKmb-51" target="-v3K85i5kZnDkR2gsKmb-60">
          <mxGeometry relative="1" as="geometry" />
        </mxCell>
        <mxCell id="-v3K85i5kZnDkR2gsKmb-72" value="Dataset Reader" style="text;html=1;align=center;verticalAlign=middle;resizable=0;points=[];autosize=1;strokeColor=none;fillColor=none;fontFamily=Helvetica;fontSize=11;fontColor=default;labelBackgroundColor=default;" vertex="1" parent="1">
          <mxGeometry x="1082" y="320" width="100" height="30" as="geometry" />
        </mxCell>
        <mxCell id="-v3K85i5kZnDkR2gsKmb-73" value="Document (Buffer) Parser" style="text;html=1;align=center;verticalAlign=middle;resizable=0;points=[];autosize=1;strokeColor=none;fillColor=none;fontFamily=Helvetica;fontSize=11;fontColor=default;labelBackgroundColor=default;" vertex="1" parent="1">
          <mxGeometry x="792" y="1005" width="150" height="30" as="geometry" />
        </mxCell>
        <mxCell id="-v3K85i5kZnDkR2gsKmb-74" value="File Reader" style="text;html=1;align=center;verticalAlign=middle;resizable=0;points=[];autosize=1;strokeColor=none;fillColor=none;fontFamily=Helvetica;fontSize=11;fontColor=default;labelBackgroundColor=default;" vertex="1" parent="1">
          <mxGeometry x="672" y="795" width="80" height="30" as="geometry" />
        </mxCell>
        <mxCell id="-v3K85i5kZnDkR2gsKmb-75" value="Interactor" style="text;html=1;align=center;verticalAlign=middle;resizable=0;points=[];autosize=1;strokeColor=none;fillColor=none;fontFamily=Helvetica;fontSize=11;fontColor=default;labelBackgroundColor=default;" vertex="1" parent="1">
          <mxGeometry x="835" width="70" height="30" as="geometry" />
        </mxCell>
        <mxCell id="-v3K85i5kZnDkR2gsKmb-76" value="Database" style="text;html=1;align=center;verticalAlign=middle;resizable=0;points=[];autosize=1;strokeColor=none;fillColor=none;fontFamily=Helvetica;fontSize=11;fontColor=default;labelBackgroundColor=default;" vertex="1" parent="1">
          <mxGeometry x="107" y="450" width="70" height="30" as="geometry" />
        </mxCell>
        <mxCell id="-v3K85i5kZnDkR2gsKmb-78" style="edgeStyle=none;shape=connector;rounded=0;orthogonalLoop=1;jettySize=auto;html=1;entryX=0;entryY=0.5;entryDx=0;entryDy=0;strokeColor=default;align=center;verticalAlign=middle;fontFamily=Helvetica;fontSize=11;fontColor=default;labelBackgroundColor=default;endArrow=block;endFill=0;" edge="1" parent="1" source="-v3K85i5kZnDkR2gsKmb-77" target="-v3K85i5kZnDkR2gsKmb-30">
          <mxGeometry relative="1" as="geometry" />
        </mxCell>
        <mxCell id="-v3K85i5kZnDkR2gsKmb-77" value="LLM API" style="rounded=0;whiteSpace=wrap;html=1;fontFamily=Helvetica;fontSize=11;fontColor=default;labelBackgroundColor=default;" vertex="1" parent="1">
          <mxGeometry x="358" y="897.5" width="120" height="60" as="geometry" />
        </mxCell>
        <mxCell id="-v3K85i5kZnDkR2gsKmb-99" style="edgeStyle=none;shape=connector;rounded=0;orthogonalLoop=1;jettySize=auto;html=1;strokeColor=default;align=center;verticalAlign=middle;fontFamily=Helvetica;fontSize=11;fontColor=default;labelBackgroundColor=default;endArrow=blockThin;endFill=0;exitX=0.5;exitY=0;exitDx=0;exitDy=0;" edge="1" parent="1" source="-v3K85i5kZnDkR2gsKmb-77" target="-v3K85i5kZnDkR2gsKmb-94">
          <mxGeometry relative="1" as="geometry" />
        </mxCell>
        <mxCell id="-v3K85i5kZnDkR2gsKmb-80" value="LLM API" style="text;html=1;align=center;verticalAlign=middle;resizable=0;points=[];autosize=1;strokeColor=none;fillColor=none;fontFamily=Helvetica;fontSize=11;fontColor=default;labelBackgroundColor=default;" vertex="1" parent="1">
          <mxGeometry x="452" y="957.5" width="70" height="30" as="geometry" />
        </mxCell>
        <mxCell id="-v3K85i5kZnDkR2gsKmb-83" style="edgeStyle=none;shape=connector;rounded=0;orthogonalLoop=1;jettySize=auto;html=1;exitX=0.75;exitY=0;exitDx=0;exitDy=0;entryX=0.5;entryY=1;entryDx=0;entryDy=0;strokeColor=default;align=center;verticalAlign=middle;fontFamily=Helvetica;fontSize=11;fontColor=default;labelBackgroundColor=default;endArrow=block;endFill=0;" edge="1" parent="1" source="-v3K85i5kZnDkR2gsKmb-82" target="-v3K85i5kZnDkR2gsKmb-7">
          <mxGeometry relative="1" as="geometry" />
        </mxCell>
        <mxCell id="-v3K85i5kZnDkR2gsKmb-85" style="edgeStyle=none;shape=connector;rounded=0;orthogonalLoop=1;jettySize=auto;html=1;exitX=0.25;exitY=0;exitDx=0;exitDy=0;strokeColor=default;align=center;verticalAlign=middle;fontFamily=Helvetica;fontSize=11;fontColor=default;labelBackgroundColor=default;endArrow=open;endFill=0;" edge="1" parent="1" source="-v3K85i5kZnDkR2gsKmb-82" target="-v3K85i5kZnDkR2gsKmb-2">
          <mxGeometry relative="1" as="geometry" />
        </mxCell>
        <mxCell id="-v3K85i5kZnDkR2gsKmb-86" style="edgeStyle=none;shape=connector;rounded=0;orthogonalLoop=1;jettySize=auto;html=1;exitX=0.25;exitY=1;exitDx=0;exitDy=0;entryX=0.75;entryY=0;entryDx=0;entryDy=0;strokeColor=default;align=center;verticalAlign=middle;fontFamily=Helvetica;fontSize=11;fontColor=default;labelBackgroundColor=default;endArrow=open;endFill=0;" edge="1" parent="1" source="-v3K85i5kZnDkR2gsKmb-82" target="-v3K85i5kZnDkR2gsKmb-14">
          <mxGeometry relative="1" as="geometry" />
        </mxCell>
        <mxCell id="-v3K85i5kZnDkR2gsKmb-87" style="edgeStyle=none;shape=connector;rounded=0;orthogonalLoop=1;jettySize=auto;html=1;exitX=0.75;exitY=1;exitDx=0;exitDy=0;entryX=0.25;entryY=0;entryDx=0;entryDy=0;strokeColor=default;align=center;verticalAlign=middle;fontFamily=Helvetica;fontSize=11;fontColor=default;labelBackgroundColor=default;endArrow=open;endFill=0;" edge="1" parent="1" source="-v3K85i5kZnDkR2gsKmb-82" target="-v3K85i5kZnDkR2gsKmb-15">
          <mxGeometry relative="1" as="geometry" />
        </mxCell>
        <mxCell id="-v3K85i5kZnDkR2gsKmb-82" value="Mixed Parser" style="rounded=0;whiteSpace=wrap;html=1;fontFamily=Helvetica;fontSize=11;fontColor=default;labelBackgroundColor=default;" vertex="1" parent="1">
          <mxGeometry x="924" y="705" width="120" height="60" as="geometry" />
        </mxCell>
        <mxCell id="-v3K85i5kZnDkR2gsKmb-84" style="edgeStyle=none;shape=connector;rounded=0;orthogonalLoop=1;jettySize=auto;html=1;exitX=0.5;exitY=0;exitDx=0;exitDy=0;entryX=0.44;entryY=1.036;entryDx=0;entryDy=0;entryPerimeter=0;strokeColor=default;align=center;verticalAlign=middle;fontFamily=Helvetica;fontSize=11;fontColor=default;labelBackgroundColor=default;endArrow=open;endFill=0;" edge="1" parent="1" source="-v3K85i5kZnDkR2gsKmb-82" target="-v3K85i5kZnDkR2gsKmb-10">
          <mxGeometry relative="1" as="geometry" />
        </mxCell>
        <mxCell id="-v3K85i5kZnDkR2gsKmb-88" value="" style="group" vertex="1" connectable="0" parent="1">
          <mxGeometry x="643" y="120" width="120" height="80" as="geometry" />
        </mxCell>
        <mxCell id="-v3K85i5kZnDkR2gsKmb-60" value="Read Document" style="rounded=0;whiteSpace=wrap;html=1;fontFamily=Helvetica;fontSize=11;fontColor=default;labelBackgroundColor=default;" vertex="1" parent="-v3K85i5kZnDkR2gsKmb-88">
          <mxGeometry y="20" width="120" height="60" as="geometry" />
        </mxCell>
        <mxCell id="-v3K85i5kZnDkR2gsKmb-63" value="&amp;lt;DS&amp;gt;" style="text;html=1;align=center;verticalAlign=middle;whiteSpace=wrap;rounded=0;fillColor=default;" vertex="1" parent="-v3K85i5kZnDkR2gsKmb-88">
          <mxGeometry x="60" width="60" height="30" as="geometry" />
        </mxCell>
        <mxCell id="-v3K85i5kZnDkR2gsKmb-92" value="" style="group" vertex="1" connectable="0" parent="1">
          <mxGeometry x="273" y="120" width="121" height="80" as="geometry" />
        </mxCell>
        <mxCell id="-v3K85i5kZnDkR2gsKmb-89" value="Embedded Document" style="rounded=0;whiteSpace=wrap;html=1;fontFamily=Helvetica;fontSize=11;fontColor=default;labelBackgroundColor=default;" vertex="1" parent="-v3K85i5kZnDkR2gsKmb-92">
          <mxGeometry y="20" width="120" height="60" as="geometry" />
        </mxCell>
        <mxCell id="-v3K85i5kZnDkR2gsKmb-91" value="&amp;lt;DS&amp;gt;" style="text;html=1;align=center;verticalAlign=middle;whiteSpace=wrap;rounded=0;fillColor=default;" vertex="1" parent="-v3K85i5kZnDkR2gsKmb-92">
          <mxGeometry x="61" width="60" height="30" as="geometry" />
        </mxCell>
        <mxCell id="-v3K85i5kZnDkR2gsKmb-101" style="edgeStyle=none;shape=connector;rounded=0;orthogonalLoop=1;jettySize=auto;html=1;exitX=0;exitY=0.5;exitDx=0;exitDy=0;entryX=1;entryY=0.5;entryDx=0;entryDy=0;strokeColor=default;align=center;verticalAlign=middle;fontFamily=Helvetica;fontSize=11;fontColor=default;labelBackgroundColor=default;endArrow=open;endFill=0;" edge="1" parent="1" source="-v3K85i5kZnDkR2gsKmb-94" target="-v3K85i5kZnDkR2gsKmb-89">
          <mxGeometry relative="1" as="geometry" />
        </mxCell>
        <mxCell id="-v3K85i5kZnDkR2gsKmb-102" style="edgeStyle=none;shape=connector;rounded=0;orthogonalLoop=1;jettySize=auto;html=1;exitX=1;exitY=0.5;exitDx=0;exitDy=0;entryX=0;entryY=0.5;entryDx=0;entryDy=0;strokeColor=default;align=center;verticalAlign=middle;fontFamily=Helvetica;fontSize=11;fontColor=default;labelBackgroundColor=default;endArrow=open;endFill=0;" edge="1" parent="1" source="-v3K85i5kZnDkR2gsKmb-94" target="-v3K85i5kZnDkR2gsKmb-60">
          <mxGeometry relative="1" as="geometry" />
        </mxCell>
        <mxCell id="-v3K85i5kZnDkR2gsKmb-94" value="Document Embedder" style="rounded=0;whiteSpace=wrap;html=1;fontFamily=Helvetica;fontSize=11;fontColor=default;labelBackgroundColor=default;" vertex="1" parent="1">
          <mxGeometry x="446.5" y="140" width="120" height="60" as="geometry" />
        </mxCell>
        <mxCell id="-v3K85i5kZnDkR2gsKmb-98" value="&amp;lt;I&amp;gt;" style="text;html=1;align=center;verticalAlign=middle;whiteSpace=wrap;rounded=0;fillColor=default;" vertex="1" parent="1">
          <mxGeometry x="506.5" y="120" width="60" height="30" as="geometry" />
        </mxCell>
      </root>
    </mxGraphModel>
  </diagram>
</mxfile>
